<svg xmlns="http://www.w3.org/2000/svg" width="20" height="20" viewBox="0 0 20 20">
  <g id="call" transform="translate(-10.444 -25.999)">
    <path id="Path_32" data-name="Path 32" d="M22.249,45.792a8.791,8.791,0,0,0,7.562-1.856,1.585,1.585,0,0,0,.131-2.338c-.768-.788-2.05-2.068-3.525-3.531a2.259,2.259,0,0,0-3.146-.008L21.7,39.6a.558.558,0,0,1-.79,0l-3.935-3.858a.531.531,0,0,1,0-.774l1.57-1.538a2.154,2.154,0,0,0-.008-3.088c-1.492-1.446-2.8-2.7-3.6-3.453a1.659,1.659,0,0,0-2.384.127,8.37,8.37,0,0,0-1.895,7.413,14.828,14.828,0,0,0,4.354,7.1,15.244,15.244,0,0,0,7.24,4.266ZM11.739,34.2a7.189,7.189,0,0,1,1.667-6.49.549.549,0,0,1,.762-.032c.793.741,2.1,2,3.587,3.44a1.064,1.064,0,0,1,0,1.546L16.188,34.2a1.619,1.619,0,0,0,0,2.311l3.935,3.857a1.7,1.7,0,0,0,2.358,0l1.573-1.541a1.113,1.113,0,0,1,1.573,0c1.474,1.461,2.755,2.74,3.511,3.517a.524.524,0,0,1-.033.748,7.555,7.555,0,0,1-6.621,1.634,14.226,14.226,0,0,1-6.692-3.974A13.84,13.84,0,0,1,11.739,34.2Z" fill="#fff"/>
    <path id="Path_33" data-name="Path 33" d="M25.042,31.19a6.024,6.024,0,0,0-2.693-1.533.556.556,0,0,0-.678.387.543.543,0,0,0,.395.664,4.932,4.932,0,0,1,2.194,1.25,4.8,4.8,0,0,1,1.253,2.071.556.556,0,0,0,.686.373.541.541,0,0,0,.382-.671A5.861,5.861,0,0,0,25.042,31.19Z" fill="#fff"/>
    <path id="Path_34" data-name="Path 34" d="M27.9,28.521a9.328,9.328,0,0,0-4.763-2.512.554.554,0,0,0-.649.43.543.543,0,0,0,.438.637h0a8.223,8.223,0,0,1,4.189,2.214,7.985,7.985,0,0,1,2.228,3.957.554.554,0,0,0,.659.417h0a.544.544,0,0,0,.425-.645A9.062,9.062,0,0,0,27.9,28.521Z" fill="#fff"/>
  </g>
</svg>
