<svg xmlns="http://www.w3.org/2000/svg" xmlns:xlink="http://www.w3.org/1999/xlink" width="18" height="26" viewBox="0 0 18 26">
  <defs>
    <clipPath id="clip-path">
      <rect id="crop" width="18" height="26" transform="translate(3.699)" fill="none"/>
    </clipPath>
  </defs>
  <g id="location" transform="translate(-3.699)" clip-path="url(#clip-path)">
    <g id="Group_8" data-name="Group 8">
      <path id="Path_11" data-name="Path 11" d="M12.7-.436c-4.964,0-9,4.311-9,9.613,0,3.855,2.186,7.965,4.325,11.163A47.646,47.646,0,0,0,12.3,25.824a.536.536,0,0,0,.795,0,47.646,47.646,0,0,0,4.279-5.484c2.139-3.2,4.322-7.308,4.322-11.163C21.7,3.875,17.663-.436,12.7-.436Zm0,1.2a8.148,8.148,0,0,1,7.875,8.411c0,3.355-2.033,7.354-4.113,10.464A38.09,38.09,0,0,1,12.7,24.465a38.352,38.352,0,0,1-3.76-4.824c-2.08-3.11-4.115-7.109-4.115-10.464A8.148,8.148,0,0,1,12.7.766Z" fill="#fff"/>
      <path id="Path_12" data-name="Path 12" d="M12.7,4.971A4.086,4.086,0,0,0,8.763,9.177,4.086,4.086,0,0,0,12.7,13.383a4.089,4.089,0,0,0,3.939-4.206A4.089,4.089,0,0,0,12.7,4.971Zm0,1.2a2.905,2.905,0,0,1,2.813,3,2.905,2.905,0,0,1-2.813,3,2.9,2.9,0,0,1-2.811-3A2.9,2.9,0,0,1,12.7,6.173Z" fill="#fff"/>
    </g>
  </g>
</svg>
