<svg xmlns="http://www.w3.org/2000/svg" width="23" height="16" viewBox="0 0 23 16">
  <g id="mail" transform="translate(-38.5 -61.697)">
    <g id="Group_21" data-name="Group 21">
      <path id="Path_31" data-name="Path 31" d="M40.744,61.7A2.261,2.261,0,0,0,38.5,63.964V75.421A2.269,2.269,0,0,0,40.744,77.7H59.256A2.269,2.269,0,0,0,61.5,75.421V63.964A2.261,2.261,0,0,0,59.256,61.7Zm0,1.1H59.256a1.122,1.122,0,0,1,.465.112l-9.029,8.431a.949.949,0,0,1-1.367,0l-9.046-8.431A1.122,1.122,0,0,1,40.744,62.8Zm-1.1,1.035,6.39,5.956-6.284,6.172a1.223,1.223,0,0,1-.123-.543V63.964c0-.044.013-.087.017-.129Zm20.722,0c0,.042.017.085.017.129V75.421a1.222,1.222,0,0,1-.123.535l-6.267-6.172,6.372-5.948Zm-7.188,6.715,6.136,6.043H40.7l6.145-6.035,1.709,1.586a2.143,2.143,0,0,0,2.91,0Z" fill="#fff"/>
    </g>
  </g>
</svg>
